<svg xmlns="http://www.w3.org/2000/svg" version="1.1" xmlns:xlink="http://www.w3.org/1999/xlink" width="250" height="50" viewBox="0 0 250 50"><svg xml:space="preserve" width="238" height="48" data-version="2" data-id="lg_9geqvZg0pgey7Dz4VU" viewBox="0 0 563 84" x="6" y="1">
    <path d="M117.09 82.055q-7.27 0-12.73-2.14-5.46-2.14-9.09-5.99-3.64-3.86-5.46-9.15-1.82-5.3-1.82-11.61 0-6.64 1.87-12.15 1.88-5.51 5.51-9.57 3.64-4.07 8.99-6.32 5.35-2.24 12.2-2.24t11.93 2.24q5.08 2.25 8.24 6.26 3.16 4.02 4.33 9.47l-14.23 4.6q-.32-3.31-1.76-5.72-1.45-2.41-3.86-3.64-2.4-1.23-5.4-1.23-3.1 0-5.35 1.23-2.25 1.23-3.8 3.53-1.55 2.3-2.35 5.57-.8 3.26-.8 7.33 0 5.77 1.55 9.79 1.55 4.01 4.6 6.1 3.05 2.08 7.54 2.08 4.28 0 6.85-1.66 2.57-1.65 3.8-4.28 1.23-2.62 1.55-5.4l13.48 3q-.53 4.17-2.3 7.81-1.76 3.64-4.97 6.31-3.21 2.68-7.76 4.23-4.55 1.55-10.76 1.55" paint-order="stroke"></path>
    <rect width="54.89" height="59.17" x="-27.445" y="-29.585" fill="none" rx="0" ry="0" transform="matrix(1 0 0 1 115.935 52.97)"></rect>
    <path d="M149.52 80.555v-56.17h15.4v56.17Zm7.81-64.63q-4.5 0-6.9-1.87-2.41-1.87-2.41-5.51 0-3.75 2.41-5.67 2.4-1.93 6.9-1.93 4.6 0 7.01 1.93 2.4 1.92 2.4 5.67 0 3.53-2.4 5.46-2.41 1.92-7.01 1.92" paint-order="stroke"></path>
    <rect width="18.72" height="79.61" x="-9.36" y="-39.805" fill="none" rx="0" ry="0" transform="matrix(1 0 0 1 157.88 41.25)"></rect>
    <path d="M197.88 81.835q-9.42 0-13.86-4.97-4.44-4.98-4.44-15.89v-24.5h-8.13l.21-12.09h5.68q3.31 0 4.92-.97 1.6-.96 1.92-3.53l1.39-8.02h8.78v12.52h14.23v12.51h-14.23v23.44q0 3.85 1.82 5.56 1.82 1.71 5.56 1.71 2.03 0 3.91-.42 1.87-.43 3.26-1.4v14.34q-3.32 1.07-6.1 1.39-2.78.32-4.92.32" paint-order="stroke"></path>
    <rect width="37.45" height="69.97" x="-18.725" y="-34.985" fill="none" rx="0" ry="0" transform="matrix(1 0 0 1 190.675 47.35)"></rect>
    <path d="M217.35 80.555v-56.17h12.74l.1 19.15h2.04q.85-7.17 2.94-11.66 2.09-4.5 5.83-6.64 3.75-2.14 9.31-2.14.96 0 2.09.05 1.12.06 2.62.38l-.64 16.37q-1.61-.75-3.54-1.07-1.92-.32-3.42-.32-4.17 0-7.17 1.93-2.99 1.92-4.87 5.51-1.87 3.58-2.51 8.72v25.89Z" paint-order="stroke"></path>
    <rect width="37.67" height="57.46" x="-18.835" y="-28.73" fill="none" rx="0" ry="0" transform="matrix(1 0 0 1 236.685 52.325)"></rect>
    <path d="M261.65 80.555v-56.17h15.41v56.17Zm7.81-64.63q-4.49 0-6.9-1.87t-2.41-5.51q0-3.75 2.41-5.67 2.41-1.93 6.9-1.93 4.6 0 7.01 1.93 2.41 1.92 2.41 5.67 0 3.53-2.41 5.46-2.41 1.92-7.01 1.92" paint-order="stroke"></path>
    <rect width="18.73" height="79.61" x="-9.365" y="-39.805" fill="none" rx="0" ry="0" transform="matrix(1 0 0 1 270.015 41.25)"></rect>
    <path d="M315.15 82.055q-7.27 0-12.73-2.14-5.46-2.14-9.1-5.99-3.63-3.86-5.45-9.15-1.82-5.3-1.82-11.61 0-6.64 1.87-12.15 1.87-5.51 5.51-9.57 3.64-4.07 8.99-6.32 5.35-2.24 12.2-2.24 6.84 0 11.93 2.24 5.08 2.25 8.24 6.26 3.15 4.02 4.33 9.47l-14.23 4.6q-.32-3.31-1.77-5.72-1.44-2.41-3.85-3.64t-5.4-1.23q-3.11 0-5.35 1.23-2.25 1.23-3.8 3.53-1.55 2.3-2.35 5.57-.81 3.26-.81 7.33 0 5.77 1.55 9.79 1.56 4.01 4.61 6.1 3.04 2.08 7.54 2.08 4.28 0 6.85-1.66 2.56-1.65 3.8-4.28 1.23-2.62 1.55-5.4l13.48 3q-.54 4.17-2.3 7.81-1.77 3.64-4.98 6.31-3.21 2.68-7.75 4.23-4.55 1.55-10.76 1.55" paint-order="stroke"></path>
    <rect width="54.89" height="59.17" x="-27.445" y="-29.585" fill="none" rx="0" ry="0" transform="matrix(1 0 0 1 313.995 52.97)"></rect>
    <path d="M347.57 80.555v-76.5h15.2v76.5Z" paint-order="stroke"></path>
    <rect width="15.2" height="76.5" x="-7.6" y="-38.25" fill="none" rx="0" ry="0" transform="matrix(1 0 0 1 355.67 42.805)"></rect>
    <path d="M400.22 82.055q-8.46 0-14.88-3.37t-10.05-9.95q-3.64-6.58-3.64-16.43 0-9.84 3.69-16.37 3.69-6.53 10.16-9.79 6.48-3.26 14.72-3.26 8.45 0 14.92 3.31 6.48 3.32 10.17 9.9 3.69 6.58 3.69 16.43 0 9.95-3.8 16.53-3.8 6.58-10.27 9.79-6.47 3.21-14.71 3.21m.53-11.45q4.17 0 7.01-1.93 2.84-1.92 4.28-5.83 1.44-3.9 1.44-9.47 0-5.88-1.55-10t-4.54-6.32q-3-2.19-7.6-2.19-3.96 0-6.85 1.87-2.89 1.88-4.39 5.78-1.49 3.91-1.49 9.58 0 9.09 3.63 13.8 3.64 4.71 10.06 4.71" paint-order="stroke"></path>
    <rect width="57.35" height="59.17" x="-28.675" y="-29.585" fill="none" rx="0" ry="0" transform="matrix(1 0 0 1 400.825 52.97)"></rect>
    <path d="M456.82 82.055q-9.84 0-14.82-6.69t-4.98-20.38v-30.6h15.41v28.67q0 8.24 2.46 12.25 2.46 4.02 7.49 4.02 3 0 5.25-1.5 2.24-1.5 3.85-4.18 1.6-2.67 2.41-6.31.8-3.64.91-7.81v-25.14h15.4v56.17h-12.41l-.11-17.55h-1.92q-1.61 6.64-4.01 10.86-2.41 4.23-6.1 6.21-3.69 1.98-8.83 1.98" paint-order="stroke"></path>
    <rect width="53.18" height="57.67" x="-26.59" y="-28.835" fill="none" rx="0" ry="0" transform="matrix(1 0 0 1 464.11 53.72)"></rect>
    <path d="M522.62 82.055q-7.06 0-12.35-3.64-5.3-3.64-8.19-10.27-2.89-6.64-2.89-15.73 0-8.56 2.57-15.19 2.57-6.64 7.6-10.38 5.03-3.75 12.52-3.75 5.45 0 9.2 2.03 3.74 2.04 6.15 5.94 2.41 3.91 3.8 9.37h2.46q-.75-3.43-1.34-6.69-.59-3.27-.91-6.26-.32-3-.32-5.24V4.055h15.41v76.5h-12.84v-16.26h-2.14q-1.18 5.99-3.64 9.95-2.46 3.96-6.26 5.88-3.8 1.93-8.83 1.93m5.14-12.63q3.53 0 5.99-1.5 2.46-1.49 4.07-3.9 1.6-2.41 2.35-5.24.75-2.84.75-5.3v-2.03q0-2.04-.59-4.23-.59-2.19-1.66-4.33-1.07-2.14-2.67-3.8-1.61-1.66-3.75-2.62-2.14-.97-4.7-.97-3.86 0-6.53 2.14-2.68 2.14-4.17 5.94-1.5 3.8-1.5 8.83 0 5.14 1.55 8.99 1.55 3.85 4.33 5.94 2.79 2.08 6.53 2.08" paint-order="stroke"></path>
    <rect width="57.14" height="78" x="-28.57" y="-39" fill="none" rx="0" ry="0" transform="matrix(1 0 0 1 528.26 43.555)"></rect>
    <path fill="#0EA5E9" stroke="#FFF" stroke-width="2.446" d="M38.7 12.974c17.565 0 31.804 14.24 31.804 31.804 0 17.565-14.24 31.805-31.804 31.805-.382 0-.762-.01-1.14-.023a39.608 39.608 0 0 1 27.778-30.28l5.165-1.503-5.58-1.694a39.68 39.68 0 0 1-27.365-30.088c.379-.013.759-.022 1.14-.022Zm-4.438 15.611a81.55 81.55 0 0 0 .333 35.171L37.55 76.56C20.517 75.954 6.895 61.958 6.895 44.778S20.517 13.601 37.55 12.996z"></path>
</svg></svg>